<?xml version="1.0"?>
<svg xmlns="http://www.w3.org/2000/svg" version="1.1" width="600px" height="600px" viewBox="0 0 200 200" style="overflow:hidden!important;">
  <defs id="SvgjsDefs1007">
    <radialGradient id="SvgjsRadialGradient2904" cx="100" cy="114" r="41" gradientUnits="userSpaceOnUse" class="svga-on-canvas-facehighlight-gradient-single-0">
      <stop id="SvgjsStop2905" stop-opacity="0.5" stop-color="#ffe4d6" offset="0"/>
      <stop id="SvgjsStop2906" stop-opacity="0" stop-color="#f0c7b1" offset="0.9"/>
    </radialGradient>
    <radialGradient id="SvgjsRadialGradient2908" cx="100" cy="54" r="37" gradientUnits="userSpaceOnUse" class="svga-on-canvas-facehighlight-gradient-single-1">
      <stop id="SvgjsStop2909" stop-opacity="0.5" stop-color="#ffe4d6" offset="0"/>
      <stop id="SvgjsStop2910" stop-opacity="0" stop-color="#f0c7b1" offset="0.9"/>
    </radialGradient>
    <linearGradient id="SvgjsLinearGradient3640" x1="100" y1="171" x2="100" y2="128" gradientUnits="userSpaceOnUse" class="svga-on-canvas-chinshadow-gradient-single-0">
      <stop id="SvgjsStop3641" stop-opacity="0.8" stop-color="#e1ac8f" offset="0"/>
      <stop id="SvgjsStop3642" stop-opacity="1" stop-color="#c27b55" offset="0.7"/>
    </linearGradient>
    <linearGradient id="SvgjsLinearGradient4200" x1="100" y1="141" x2="100" y2="137" gradientUnits="userSpaceOnUse" class="svga-on-canvas-mouth-gradient-single-0">
      <stop id="SvgjsStop4201" stop-opacity="1" stop-color="#e8b9a0" offset="0.1"/>
      <stop id="SvgjsStop4202" stop-opacity="1" stop-color="#e1ac8f" offset="1"/>
    </linearGradient>
    <linearGradient id="SvgjsLinearGradient4329" x1="130" y1="69" x2="130" y2="109" gradientUnits="userSpaceOnUse" class="svga-on-canvas-glasses-gradient-single-0">
      <stop id="SvgjsStop4330" stop-opacity="1" stop-color="#000000" offset="0"/>
      <stop id="SvgjsStop4331" stop-opacity="0.8" stop-color="#000000" offset="1"/>
    </linearGradient>
    <linearGradient id="SvgjsLinearGradient4333" x1="130" y1="69" x2="130" y2="109" gradientTransform="matrix(-1 0 0 1 200 0)" gradientUnits="userSpaceOnUse" class="svga-on-canvas-glasses-gradient-single-1">
      <stop id="SvgjsStop4334" stop-opacity="1" stop-color="#000000" offset="0"/>
      <stop id="SvgjsStop4335" stop-opacity="0.8" stop-color="#000000" offset="1"/>
    </linearGradient>
    <radialGradient id="SvgjsRadialGradient4937" cx="125.379" cy="82.93" r="12.84" gradientTransform="matrix(-1.0592 4.000000e-004 -4.000000e-004 0.9318 206.5112 5.1767)" gradientUnits="userSpaceOnUse" class="svga-on-canvas-eyesback-gradient-left-0">
      <stop id="SvgjsStop4938" stop-opacity="1" stop-color="#ffffff" offset="0"/>
      <stop id="SvgjsStop4939" stop-opacity="1" stop-color="#fdfefe" offset="0.544"/>
      <stop id="SvgjsStop4940" stop-opacity="1" stop-color="#f6f8f9" offset="0.74"/>
      <stop id="SvgjsStop4941" stop-opacity="1" stop-color="#eaeff2" offset="0.879"/>
      <stop id="SvgjsStop4942" stop-opacity="1" stop-color="#d9e3e8" offset="0.992"/>
      <stop id="SvgjsStop4943" stop-opacity="1" stop-color="#d8e2e7" offset="1"/>
    </radialGradient>
    <radialGradient id="SvgjsRadialGradient4945" cx="125.001" cy="82.93" r="12.841" gradientTransform="matrix(1.0592 4.000000e-004 4.000000e-004 0.9318 -6.5112 5.1767)" gradientUnits="userSpaceOnUse" class="svga-on-canvas-eyesback-gradient-right-0">
      <stop id="SvgjsStop4946" stop-opacity="1" stop-color="#ffffff" offset="0"/>
      <stop id="SvgjsStop4947" stop-opacity="1" stop-color="#fdfefe" offset="0.544"/>
      <stop id="SvgjsStop4948" stop-opacity="1" stop-color="#f6f8f9" offset="0.74"/>
      <stop id="SvgjsStop4949" stop-opacity="1" stop-color="#eaeff2" offset="0.879"/>
      <stop id="SvgjsStop4950" stop-opacity="1" stop-color="#d9e3e8" offset="0.992"/>
      <stop id="SvgjsStop4951" stop-opacity="1" stop-color="#d8e2e7" offset="1"/>
    </radialGradient>
    <radialGradient id="SvgjsRadialGradient4953" cx="125.379" cy="82.93" r="12.84" gradientTransform="matrix(-1.0592 4.000000e-004 -4.000000e-004 0.9318 206.5112 5.1767)" gradientUnits="userSpaceOnUse" class="svga-on-canvas-eyesfront-gradient-left-0">
      <stop id="SvgjsStop4954" stop-opacity="1" stop-color="#ffffff" offset="0"/>
      <stop id="SvgjsStop4955" stop-opacity="1" stop-color="#fdfefe" offset="0.544"/>
      <stop id="SvgjsStop4956" stop-opacity="1" stop-color="#f6f8f9" offset="0.74"/>
      <stop id="SvgjsStop4957" stop-opacity="1" stop-color="#eaeff2" offset="0.879"/>
      <stop id="SvgjsStop4958" stop-opacity="1" stop-color="#d9e3e8" offset="0.992"/>
      <stop id="SvgjsStop4959" stop-opacity="1" stop-color="#d8e2e7" offset="1"/>
    </radialGradient>
    <radialGradient id="SvgjsRadialGradient4963" cx="123.218" cy="81.096" fx="133.802" fy="77.197" r="17.898" gradientTransform="matrix(0.9998 0.0183 0.0166 -0.7038 -47.7588 136.6255)" gradientUnits="userSpaceOnUse" class="svga-on-canvas-eyesfront-gradient-left-3">
      <stop id="SvgjsStop4964" stop-opacity="1" stop-color="#e1ac8f" offset="0"/>
      <stop id="SvgjsStop4965" stop-opacity="0.3" stop-color="#e1ac8f" offset="0.7"/>
      <stop id="SvgjsStop4966" stop-opacity="0" stop-color="#f0c7b1" offset="1"/>
    </radialGradient>
    <radialGradient id="SvgjsRadialGradient4968" cx="79.496" cy="81.496" r="23.208" gradientTransform="matrix(1.0971 -0.0499 0.0576 0.9543 -20.1632 27.912)" gradientUnits="userSpaceOnUse" class="svga-on-canvas-eyesfront-gradient-left-4">
      <stop id="SvgjsStop4969" stop-opacity="0" stop-color="#000000" offset="0.9"/>
      <stop id="SvgjsStop4970" stop-opacity="0.2" stop-color="#000000" offset="1"/>
    </radialGradient>
    <radialGradient id="SvgjsRadialGradient4974" cx="125.001" cy="82.93" r="12.841" gradientTransform="matrix(1.0592 4.000000e-004 4.000000e-004 0.9318 -6.5112 5.1767)" gradientUnits="userSpaceOnUse" class="svga-on-canvas-eyesfront-gradient-right-0">
      <stop id="SvgjsStop4975" stop-opacity="1" stop-color="#ffffff" offset="0"/>
      <stop id="SvgjsStop4976" stop-opacity="1" stop-color="#fdfefe" offset="0.544"/>
      <stop id="SvgjsStop4977" stop-opacity="1" stop-color="#f6f8f9" offset="0.74"/>
      <stop id="SvgjsStop4978" stop-opacity="1" stop-color="#eaeff2" offset="0.879"/>
      <stop id="SvgjsStop4979" stop-opacity="1" stop-color="#d9e3e8" offset="0.992"/>
      <stop id="SvgjsStop4980" stop-opacity="1" stop-color="#d8e2e7" offset="1"/>
    </radialGradient>
    <radialGradient id="SvgjsRadialGradient4984" cx="122.818" cy="81.096" fx="133.402" fy="77.197" r="17.898" gradientTransform="matrix(-0.9998 0.0183 -0.0166 -0.7038 246.9601 136.6328)" gradientUnits="userSpaceOnUse" class="svga-on-canvas-eyesfront-gradient-right-3">
      <stop id="SvgjsStop4985" stop-opacity="1" stop-color="#e1ac8f" offset="0"/>
      <stop id="SvgjsStop4986" stop-opacity="0.3" stop-color="#e1ac8f" offset="0.7"/>
      <stop id="SvgjsStop4987" stop-opacity="0" stop-color="#f0c7b1" offset="1"/>
    </radialGradient>
    <radialGradient id="SvgjsRadialGradient4989" cx="79.859" cy="81.511" r="23.208" gradientTransform="matrix(-1.0971 -0.0499 -0.0576 0.9543 220.163 27.9157)" gradientUnits="userSpaceOnUse" class="svga-on-canvas-eyesfront-gradient-right-4">
      <stop id="SvgjsStop4990" stop-opacity="0" stop-color="#000000" offset="0.9"/>
      <stop id="SvgjsStop4991" stop-opacity="0.2" stop-color="#000000" offset="1"/>
    </radialGradient>
    <radialGradient id="SvgjsRadialGradient5000" cx="-582.838" cy="-519.099" r="59.745" gradientTransform="matrix(0.0991 8.856319e-004 -0.0011 0.0991 131.1134 135.9855)" gradientUnits="userSpaceOnUse" class="svga-on-canvas-eyesiris-gradient-left-2">
      <stop id="SvgjsStop5001" stop-opacity="1" stop-color="#ffffff" offset="0"/>
      <stop id="SvgjsStop5002" stop-opacity="0" stop-color="#ffffff" offset="1"/>
    </radialGradient>
    <linearGradient id="SvgjsLinearGradient5006" x1="122.67" y1="88.268" x2="123.606" y2="87.152" gradientTransform="matrix(1 0 0 1 -52 0)" gradientUnits="userSpaceOnUse" class="svga-on-canvas-eyesiris-gradient-left-5">
      <stop id="SvgjsStop5007" stop-opacity="1" stop-color="#ffffff" offset="0"/>
      <stop id="SvgjsStop5008" stop-opacity="0" stop-color="#ffffff" offset="1"/>
    </linearGradient>
    <linearGradient id="SvgjsLinearGradient5014" x1="129.636" y1="79.822" x2="127.91" y2="81.879" gradientTransform="matrix(1 0 0 1 -52 0)" gradientUnits="userSpaceOnUse" class="svga-on-canvas-eyesiris-gradient-left-7">
      <stop id="SvgjsStop5015" stop-opacity="1" stop-color="#ffffff" offset="0"/>
      <stop id="SvgjsStop5016" stop-opacity="0" stop-color="#ffffff" offset="1"/>
    </linearGradient>
    <radialGradient id="SvgjsRadialGradient5023" cx="-582.833" cy="-519.102" r="59.747" gradientTransform="matrix(0.0991 8.856319e-004 -0.0011 0.0991 183.1126 135.9856)" gradientUnits="userSpaceOnUse" class="svga-on-canvas-eyesiris-gradient-right-2">
      <stop id="SvgjsStop5024" stop-opacity="1" stop-color="#ffffff" offset="0"/>
      <stop id="SvgjsStop5025" stop-opacity="0" stop-color="#ffffff" offset="1"/>
    </radialGradient>
    <linearGradient id="SvgjsLinearGradient5029" x1="122.67" y1="88.268" x2="123.606" y2="87.152" gradientUnits="userSpaceOnUse" class="svga-on-canvas-eyesiris-gradient-right-5">
      <stop id="SvgjsStop5030" stop-opacity="1" stop-color="#ffffff" offset="0"/>
      <stop id="SvgjsStop5031" stop-opacity="0" stop-color="#ffffff" offset="1"/>
    </linearGradient>
    <linearGradient id="SvgjsLinearGradient5037" x1="129.636" y1="79.822" x2="127.91" y2="81.879" gradientUnits="userSpaceOnUse" class="svga-on-canvas-eyesiris-gradient-right-7">
      <stop id="SvgjsStop5038" stop-opacity="1" stop-color="#ffffff" offset="0"/>
      <stop id="SvgjsStop5039" stop-opacity="0" stop-color="#ffffff" offset="1"/>
    </linearGradient>
    <linearGradient id="SvgjsLinearGradient5071" x1="132" y1="78" x2="126" y2="84" gradientTransform="matrix(1 0 0 1 -50 0)" gradientUnits="userSpaceOnUse" class="svga-on-canvas-eyesiris-gradient-left-6">
      <stop id="SvgjsStop5072" stop-opacity="1" stop-color="#ffffff" offset="0"/>
      <stop id="SvgjsStop5073" stop-opacity="0" stop-color="#ffffff" offset="1"/>
    </linearGradient>
    <linearGradient id="SvgjsLinearGradient5081" x1="132" y1="78" x2="126" y2="84" gradientUnits="userSpaceOnUse" class="svga-on-canvas-eyesiris-gradient-right-6">
      <stop id="SvgjsStop5082" stop-opacity="1" stop-color="#ffffff" offset="0"/>
      <stop id="SvgjsStop5083" stop-opacity="0" stop-color="#ffffff" offset="1"/>
    </linearGradient>
    <linearGradient id="SvgjsLinearGradient5108" x1="127.637" y1="79.822" x2="125.91" y2="81.88" gradientTransform="matrix(1 0 0 1 -50 0)" gradientUnits="userSpaceOnUse" class="svga-on-canvas-eyesiris-gradient-left-1">
      <stop id="SvgjsStop5109" stop-opacity="1" stop-color="#ffffff" offset="0"/>
      <stop id="SvgjsStop5110" stop-opacity="0" stop-color="#ffffff" offset="1"/>
    </linearGradient>
    <linearGradient id="SvgjsLinearGradient5113" x1="129.637" y1="79.823" x2="127.91" y2="81.881" gradientUnits="userSpaceOnUse" class="svga-on-canvas-eyesiris-gradient-right-1">
      <stop id="SvgjsStop5114" stop-opacity="1" stop-color="#ffffff" offset="0"/>
      <stop id="SvgjsStop5115" stop-opacity="0" stop-color="#ffffff" offset="1"/>
    </linearGradient>
  </defs>
  <g id="svga-group-wrapper">
    <g id="svga-group-backs-single"/>
    <g id="svga-group-humanwrap-move" transform="matrix(1,0,0,1,0,4)">
      <g id="svga-group-humanwrap" transform="matrix(0.9499999,0,0,0.9499999,5.00000983310666,5.6245405154159585)">
        <g id="svga-group-hair-back-move" transform="matrix(1,0,0,1,0,0)">
          <g id="svga-group-hair-back" transform="matrix(0.9799997000000001,0,0,0.9998997000000002,2.000029999999981,0.010029999999986217)">
            <path id="SvgjsPath4911" d="M100.5,100.5h-1v-1h1V100.5z" fill="#080806" stroke-width="none" opacity="1"/>
          </g>
        </g>
        <g id="svga-group-humanbody-single">
          <path id="SvgjsPath2911" d="M195.417 199.778c-2.196-4.746-8.195-11.779-14.86-13.722 -8.239-2.403-26.837-5.308-33.733-6.923 -5.528-1.296-16.662-11.294-20.564-14.65 -0.7-0.6-1.273-1.839-1.287-2.76 -0.139-10.864 4.195-39.724 4.195-39.724H100 70.833c0 0 4.334 28.859 4.193 39.724 -0.011 0.921-0.587 2.16-1.285 2.76 -3.902 3.356-15.036 13.354-20.564 14.65 -6.897 1.615-25.495 4.619-33.733 7.022 -6.667 1.942-12.664 8.876-14.86 13.622 -3.708 8.008-4.584 22.5-4.584 35h100 100C200 222.278 199.123 207.786 195.417 199.778z" fill="#f0c7b1" stroke-width="none" opacity="1" stroke="none"/>
          <path id="SvgjsPath2912" d="M159.156 184.058c24.342 3.542 34.586 8.708 37.794 50.721H200c0-12.5-0.877-26.992-4.583-35 -2.196-4.746-8.195-11.779-14.86-13.722 -8.239-2.403-26.837-5.308-33.733-6.923 -5.528-1.296-18.242-12.069-21.643-16.35 3.36 4.704 12.791 15.605 21.054 18.46C150.188 182.61 153.48 183.232 159.156 184.058zM53.766 181.244c8.263-2.854 17.693-13.756 21.054-18.46 -3.4 4.28-16.114 15.054-21.643 16.35 -6.896 1.615-25.494 4.619-33.733 7.022 -6.665 1.942-12.664 8.876-14.86 13.622 -3.706 8.008-4.583 22.5-4.583 35h3.05c3.188-41.744 13.475-47.183 37.794-50.721C46.52 183.232 49.813 182.61 53.766 181.244z" fill="#ffe4d6" stroke-width="none" opacity="1" stroke="none"/>
          <path id="SvgjsPath2913" d="M95.646 197.62c0 0-5.074-1.609-7.083-2.379 -10.449-4.009-44.395-6.607-44.395-6.607s35.754 1.419 43.644 2.779c-0.458-4.767-3.017-20.004-3.017-20.004s5.149 16.815 6.409 21.057C91.878 194.734 95.646 197.62 95.646 197.62zM106.445 196.278c-0.089 0.073-0.191 0.168-0.302 0.268C106.256 196.461 106.358 196.372 106.445 196.278zM95.646 197.62c0 0 2.893 2.992 4.347 3.03 1.91 0.051 4.828-2.899 6.151-4.104 -1.265 0.957-4.159 1.391-5.31 1.436C99.504 198.033 95.646 197.62 95.646 197.62zM116.664 190.101c-1.545 0.248-4.386 0.789-4.386 0.789l2.287-14.89c-0.646 3.071-4.474 16.211-8.12 20.278 1.91-1.616 6.158-2.391 8.324-2.704 10.236-1.484 10.232-1.483 41.062-4.94C155.831 188.634 126.76 188.479 116.664 190.101z" fill="#e1ac8f" stroke-width="none" opacity="1" stroke="none"/>
          <path id="SvgjsPath2914" d="M195.417 199.778c-2.196-4.746-8.195-11.779-14.86-13.722 -8.239-2.403-26.837-5.308-33.733-6.923 -5.528-1.296-16.662-11.294-20.564-14.65 -0.7-0.6-1.273-1.839-1.287-2.76 -0.139-10.864 4.195-39.724 4.195-39.724H100 70.833c0 0 4.334 28.859 4.193 39.724 -0.011 0.921-0.587 2.16-1.285 2.76 -3.902 3.356-15.036 13.354-20.564 14.65 -6.897 1.615-25.495 4.619-33.733 7.022 -6.667 1.942-12.664 8.876-14.86 13.622 -3.708 8.008-4.584 22.5-4.584 35h100 100C200 222.278 199.123 207.786 195.417 199.778z" fill="none" stroke="#c27b55" stroke-width="1.5" opacity="1"/>
        </g>
        <g id="svga-group-chinshadow-single">
          <path id="SvgjsPath3639" d="M124.272 162.248c-0.028-0.175-0.048-0.349-0.051-0.515 -0.094-7.38 1.819-22.721 3.098-32.078 -15.699-1.984-38.937-1.975-54.637 0.016 1.279 9.359 3.19 24.687 3.094 32.062 -0.001 0.119-0.014 0.243-0.03 0.367 3.825 3.586 7.667 6.528 11.055 8.151 5.312 2.546 21.035 2.427 26.401 0C116.613 168.71 120.456 165.812 124.272 162.248z" fill="url(#SvgjsLinearGradient3640)" opacity="1"/>
        </g>
        <g id="svga-group-clothes-single">
          <path id="SvgjsPath5127" d="M101.688 234.395c-25.465 0-58.198-0.15-68.039-0.572 4.435-21.314 2.778-32.293-2.083-51.712 7.118-1.747 11.921-2.536 15.448-3.115 3.791-0.622 6.156-1.01 8.266-2.107 9.996 10.482 26.913 21.372 42.48 22.287 0.853 0.055 1.725 0.083 2.59 0.083 14.474-0.001 30.848-8.04 44.97-22.066 1.895 0.788 5.364 1.405 9.692 2.174 4.087 0.727 8.7 1.547 13.425 2.744 -0.146 0.631-0.348 1.411-0.585 2.329 -2.096 8.12-6.979 27.043-1.495 49.473 -8.767 0.334-38.515 0.483-64.664 0.483C101.69 234.395 101.689 234.395 101.688 234.395z" fill="#1d282e" stroke-width="none" opacity="1" stroke="none"/>
          <path id="SvgjsPath5128" d="M168.437 182.109c-0.146 0.631-0.348 1.411-0.585 2.329 -0.04 0.155-0.083 0.322-0.125 0.486 -0.941-0.22-1.881-0.428-2.82-0.631 -3.222 8.649-3.854 17.85-5.906 27.138 0.91-9.095 2.662-18.19 5.227-27.284 -4.44-0.948-8.838-1.772-13.134-2.786 -8.754 9.71-17.364 16.523-32.093 21.21 11.967-5.532 22.172-12.342 30.639-21.558 -2.163-0.538-4.3-1.132-6.396-1.834 0.696-0.652 1.392-1.308 2.077-1.988 1.895 0.788 5.364 1.405 9.692 2.174C159.099 180.092 163.712 180.912 168.437 182.109zM51.595 180.616c1.914-0.521 3.81-1.086 5.666-1.735 -0.687-0.664-1.348-1.329-1.98-1.993 -2.11 1.098-4.475 1.485-8.266 2.107 -3.527 0.579-8.33 1.368-15.448 3.115 0.273 1.092 0.535 2.154 0.788 3.196 1.447-0.405 2.919-0.774 4.4-1.135 3.673 11.104 3.987 21.547 4.922 31.828 0.812-11.37-0.723-21.574-3.674-32.13 4.016-0.949 8.107-1.822 12.133-2.867 7.079 11.543 19.533 20.314 35.42 23.309C72.141 200.963 58.499 191.987 51.595 180.616z" fill="#2d373d" stroke-width="none" opacity="1" stroke="none"/>
          <path id="SvgjsPath5129" d="M145.209 176.596c-12.454 12.454-29.807 23.209-47.42 22.08 -15.392-0.905-32.436-11.828-42.41-22.41 -4.033 2.277-8.788 1.604-24.42 5.479 4.935 19.644 6.746 30.475 2.08 52.55 16.636 0.813 118.965 0.757 133.95 0.091 -6.501-25.792 0.858-47.021 2.04-52.641C158.754 179.089 148.545 178.184 145.209 176.596zM53.459 178.186c0.933-0.373 1.051-0.508 1.62-0.87 15.396 17.658 35.784 28.655 57.57 22.37 13.08-3.646 23.385-12.047 32.529-22.2 1.487 0.895 4.46 1.528 5.471 1.73 -30.278 34.504-78.329 31.856-100.11-0.271C50.582 178.945 53.417 178.196 53.459 178.186zM163.129 199.735c-1.298 13.933-1.223 22.593 2.91 33.9 -44.676-0.606-84.856-0.854-132.11 0.069 1.255-3.44 2.254-6.91 2.91-10.729 2.972-21.908-2.426-33.57-4.94-40.771 0.793-0.157 3.361-0.55 3.39-0.55 3.845 8.002 7.613 37.449 3.34 49.54 0.096-0.22 0.865-2.031 0.91-2.28 0.01-0.02 0.02-0.06 0.01-0.109 -0.02-0.04-0.05-0.08-0.05-0.09 -0.105-0.115 0.32-1.77 0.36-1.921 4.014-14.127-0.24-38.177-4.09-45.22 1-0.163 11.258-1.77 14.56-2.57 3.163 4.947 3.782 5.401 6.42 8.5 8.407 9.228 21.518 15.88 30.9 17.171 24.688 3.962 45.419-4.096 62.78-24.48 0.24-0.3 0.471-0.59 0.69-0.88 2.487 0.472 1.79 0.42 13.31 2.29 -0.316 1-2.228 6.244-3.489 11 -1.95 8.286-3.622 23.485-1.511 31.27 1.513 6.478 1.03 3.788 1.03 5.07 0.069 0.229 0.841 2.093 0.91 2.25 -0.186-0.528-0.73-2.33-0.73-2.33 0.331 0-0.638-4.805-0.699-5.14 -2.313-10.642 1.77-30.923 4.96-42.05 0.205 0.031 2.867 0.453 3.2 0.52C165.977 188.26 163.35 195.114 163.129 199.735z" fill="#000000" stroke-width="none" opacity="1" stroke="none"/>
        </g>
        <g id="svga-group-head" transform="matrix(1,0,0,1,0,0)">
          <g id="svga-group-ears-left-move" transform="matrix(1,0,0,1,1.5,0)">
            <g id="svga-group-ears-left" transform="matrix(0.9499999,0,0,0.9499999,2.1096741431221986,4.849977084273149)">
              <path id="SvgjsPath4192" d="M47.001 83.231c-1.376-2.453-5.638-8.48-9.98-7.003 -2.749 0.935-3.293 3.993-3.735 6.693 -0.588 3.591 0.471 10.694 1.389 13.26 0.881 2.467 3.533 7.23 5.264 9.045 2.13 2.225 4.775 9.324 5.194 10.061 0.66 1.162 1.536 2.911 4.122 2.692 2.853-0.244 4.584-1.85 5.856-2.121C58.253 115.192 50.582 89.616 47.001 83.231z" fill="#f0c7b1" stroke="#c27b55" stroke-width="1.5" opacity="1"/>
              <path id="SvgjsPath4193" d="M44.197 98.104c-0.132-0.581 0.007-1.56 0.142-2.504 0.124-0.861 0.24-1.675 0.169-2.251 -0.267-2.154-1.773-6.249-2.757-8.467 -1.132-2.554-2.963-5.77-5.262-6.599 -0.95-0.343-1.575 0.067-1.938 0.484 -0.266 0.305-0.325 0.665-0.238 0.707 0.086 0.042 0.285-0.254 0.572-0.535 0.235-0.229 0.579-0.426 1.051-0.385 -0.19 1.073-1.167 6.883-0.744 10.845 0.333 3.115 1.593 5.442 1.79 5.791 0.029 0.367 0.077 0.726 0.148 1.075 0.929 4.547 4.971 9.717 6.378 11.409 0.259 0.313 0.531 0.497 0.598 0.423 0.066-0.076-0.094-0.387-0.353-0.7 -1.388-1.679-5.391-6.831-6.289-11.218 -0.952-4.656 2.318-11.556 3.048-13.017 0.371 0.685 0.687 1.344 0.93 1.893 0.19 0.431 0.402 0.936 0.619 1.479 -0.429 0.762-3.434 6.32-2.338 10.767 0.406 1.641 2.235 3.755 3.447 4.333 0.667 0.32 0.919 0.797 1.209 1.349 0.336 0.64 0.718 1.365 1.828 1.892 0.225 0.108 0.429 0.151 0.61 0.151 0.313 0 0.551-0.135 0.725-0.293 0.018 0.28 0.017 0.64 0.009 0.97 -0.012 0.431 0.042 0.783 0.137 0.791 0.094 0.008 0.196-0.332 0.207-0.76 0.016-0.526 0.013-1.177-0.072-1.488 -0.248-0.917-1.008-1.953-1.813-3.048C45.221 100.116 44.403 99.003 44.197 98.104zM36.95 94.073c-2.177-7.139 0.656-13.3 1.144-14.28 0.85 0.822 1.6 1.919 2.21 2.995C39.86 83.646 37.041 89.271 36.95 94.073zM46.341 104.515c-1.004-0.475-1.339-1.115-1.666-1.733 -0.293-0.559-0.598-1.136-1.369-1.505 -0.168-0.081-0.352-0.203-0.542-0.343 -2.486-6.263 0.272-9.001 0.963-9.562 0.211 0.766 0.369 1.468 0.439 2.031 0.063 0.517-0.052 1.339-0.167 2.134 -0.142 0.985-0.286 2.004-0.137 2.664 0.226 0.982 1.069 2.131 1.884 3.242 0.723 0.986 1.466 2.003 1.721 2.832C47.359 104.439 47.017 104.836 46.341 104.515z" fill="#c27b55" stroke-width="none" opacity="1"/>
            </g>
          </g>
          <g id="svga-group-ears-right-move" transform="matrix(1,0,0,1,-1.5,0)">
            <g id="svga-group-ears-right" transform="matrix(0.9499999,0,0,0.9499999,7.877226752957142,4.849977084273149)">
              <path id="SvgjsPath4194" d="M152.736 83.231c1.377-2.453 5.639-8.48 9.98-7.003 2.75 0.935 3.293 3.993 3.736 6.693 0.588 3.591-0.471 10.694-1.389 13.26 -0.881 2.467-3.533 7.23-5.266 9.045 -2.129 2.225-4.775 9.324-5.193 10.061 -0.658 1.162-1.535 2.911-4.121 2.692 -2.854-0.244-4.584-1.85-5.857-2.121C141.484 115.192 149.156 89.616 152.736 83.231z" fill="#f0c7b1" stroke="#c27b55" stroke-width="1.5" opacity="1"/>
              <path id="SvgjsPath4195" d="M153.727 101.196c-0.805 1.096-1.564 2.131-1.813 3.048 -0.086 0.311-0.088 0.962-0.072 1.488 0.012 0.428 0.113 0.768 0.207 0.76s0.148-0.36 0.137-0.791c-0.008-0.331-0.008-0.69 0.01-0.97 0.174 0.158 0.412 0.293 0.725 0.293 0.182 0 0.385-0.043 0.609-0.151 1.109-0.526 1.492-1.252 1.828-1.892 0.289-0.552 0.543-1.028 1.209-1.349 1.213-0.578 3.041-2.692 3.447-4.333 1.096-4.447-1.908-10.005-2.338-10.767 0.217-0.544 0.43-1.049 0.619-1.479 0.244-0.549 0.559-1.208 0.93-1.893 0.73 1.46 4 8.361 3.049 13.017 -0.896 4.387-4.9 9.539-6.289 11.218 -0.258 0.313-0.418 0.624-0.352 0.7 0.066 0.074 0.338-0.109 0.598-0.423 1.406-1.692 5.449-6.862 6.379-11.409 0.07-0.35 0.117-0.708 0.146-1.075 0.197-0.349 1.459-2.676 1.791-5.791 0.422-3.961-0.555-9.772-0.744-10.845 0.473-0.042 0.814 0.156 1.051 0.385 0.287 0.281 0.486 0.577 0.572 0.535 0.086-0.042 0.027-0.402-0.238-0.707 -0.363-0.417-0.988-0.827-1.938-0.484 -2.299 0.83-4.131 4.045-5.262 6.599 -0.984 2.218-2.49 6.313-2.758 8.467 -0.072 0.576 0.045 1.39 0.17 2.251 0.135 0.945 0.273 1.924 0.141 2.504C155.336 99.003 154.518 100.116 153.727 101.196zM159.434 82.787c0.611-1.075 1.361-2.173 2.211-2.995 0.488 0.98 3.32 7.141 1.145 14.28C162.697 89.271 159.879 83.646 159.434 82.787zM152.27 104.275c0.254-0.829 0.998-1.846 1.721-2.832 0.816-1.111 1.658-2.26 1.885-3.242 0.148-0.66 0.004-1.679-0.137-2.664 -0.115-0.795-0.23-1.617-0.166-2.134 0.068-0.563 0.227-1.266 0.438-2.031 0.691 0.561 3.449 3.299 0.965 9.562 -0.191 0.14-0.375 0.263-0.543 0.343 -0.771 0.369-1.074 0.946-1.369 1.505 -0.326 0.618-0.662 1.258-1.666 1.733C152.721 104.836 152.379 104.439 152.27 104.275z" fill="#c27b55" stroke-width="none" opacity="1"/>
            </g>
          </g>
          <g id="svga-group-faceshape-wrap" transform="matrix(0.9799997000000001,0,0,0.9998997000000002,2.0000699023319157,0.008186157215348544)">
            <g id="svga-group-faceshape-single">
              <path id="SvgjsPath3636" d="M144.004 126.997c-5.003 10.225-20.047 28.437-30.801 33.266 -5.366 2.412-21.089 2.53-26.401 0 -10.646-5.067-25.765-23.057-30.801-33.266C50.388 115.623 41.15 78.444 41.138 78.39c-1.3-4.988-1.996-10.225-2.004-15.623 -0.052-34 27.154-61.598 60.772-61.65 33.621-0.053 60.913 27.457 60.963 61.456 0.009 5.4-0.669 10.638-1.952 15.631C158.901 78.256 149.6 115.559 144.004 126.997z" fill="#f0c7b1" stroke-width="none" opacity="1"/>
              <path id="SvgjsPath3637" d="M110.152 1.982c26.994 6.338 47.097 30.814 47.052 60.039 -0.009 5.399-0.704 10.635-2.004 15.624 -0.012 0.054-8.61 37.245-14.13 48.608 -4.859 10.004-19.7 27.468-30.067 32.521 -2.163 1.055-8.694 1.555-11.001 1.555 -2.307 0-8.837-0.5-11-1.555 -10.367-5.053-25.209-22.517-30.067-32.521 -5.521-11.363-14.119-48.554-14.13-48.608 -1.3-4.988-1.996-10.225-2.004-15.624C42.756 32.796 62.857 8.32 89.853 1.982 61.03 6.877 39.087 32.232 39.134 62.767c0.008 5.398 0.704 10.635 2.004 15.623 0.012 0.054 9.232 37.241 14.863 48.607 5.052 10.199 20.207 28.085 30.801 33.266 2.658 1.301 9.305 1.855 12.954 1.853 3.646 0.003 10.791-0.552 13.447-1.853 10.594-5.182 25.748-23.066 30.801-33.266 5.631-11.366 14.852-48.553 14.862-48.607 1.3-4.988 1.996-10.225 2.004-15.623C160.918 32.232 138.975 6.877 110.152 1.982z" fill="#e8b9a0" stroke-width="none" opacity="1"/>
              <path id="SvgjsPath3638" d="M144.004 126.997c-5.003 10.225-20.047 28.437-30.801 33.266 -5.366 2.412-21.089 2.53-26.401 0 -10.646-5.067-25.765-23.057-30.801-33.266C50.388 115.623 41.15 78.444 41.138 78.39c-1.3-4.988-1.996-10.225-2.004-15.623 -0.052-34 27.154-61.598 60.772-61.65 33.621-0.053 60.913 27.457 60.963 61.456 0.009 5.4-0.669 10.638-1.952 15.631C158.901 78.256 149.6 115.559 144.004 126.997z" fill="none" stroke="#c27b55" stroke-width="1.5" opacity="1"/>
            </g>
          </g>
          <g id="svga-group-mouth-single-move" transform="matrix(1,0,0,1,0,0)">
            <g id="svga-group-mouth-single" transform="matrix(1,0,0,1,0,0)">
              <path id="SvgjsPath4199" d="M100.671 140.999c-5.683-0.008-7.963-3.983-7.963-3.983 6.845 2.441 15.408 0.264 15.408 0.264S106.377 141.008 100.671 140.999z" fill="url(#SvgjsLinearGradient4200)" opacity="1"/>
              <path id="SvgjsPath4203" d="M81.783 130.557c3.57-0.112 10.625-0.609 13.211-0.457 1.337 0.079 3.53 0.999 4.971 1.313 1.003 0.22 4.814-0.817 5.842-0.822 2.687-0.017 8.513 1.274 11.642 1.782 0.173 0.027 0 0 0 0s-7.699 6.575-17.56 6.143C88.728 138.025 81.783 130.557 81.783 130.557S81.606 130.562 81.783 130.557z" fill="#da7c87" stroke-width="none" opacity="1"/>
              <path id="SvgjsPath4204" d="M117.743 132.177c-0.085-0.126-0.641-0.245-0.846-0.221 -0.373 0.044-0.643 0.389-1.425 0.458 -0.904 0.084-5.695 0.815-7.002 0.782 -2.629-0.064-5.647 0.561-8.157 0.451 -2.513-0.11-6.464-1.159-9.077-1.344 -1.297-0.092-6.623-1.333-7.505-1.507 -0.759-0.15-0.82-0.506-1.125-0.607 -0.215-0.074-0.832-0.023-0.999 0.09 -0.145 0.1-0.1 0.557 0.001 0.683 0.248 0.305 1.167 0.435 1.838 0.568 0.931 0.184 6.336 1.438 7.67 1.532 2.586 0.186 6.589 1.303 9.123 1.414 2.532 0.112 5.608-0.587 8.21-0.521 1.338 0.034 6.197-0.699 7.156-0.784 0.694-0.064 1.556-0.179 1.876-0.402C117.634 132.664 117.826 132.309 117.743 132.177z" fill="#ac2e3d" stroke-width="none" opacity="1"/>
              <path id="SvgjsPath4205" d="M99.999 137.244c-4.411-0.192-11.369-1.912-14.032-4.152 1.629 0.195 5.155 0.481 6.772 0.693 1.997 0.265 4.761 1.003 6.795 1.192 2.196 0.202 5.2-0.237 7.342-0.422 1.79-0.153 4.563-0.661 6.35-0.72C110.221 135.628 104.257 137.43 99.999 137.244zM107.157 132.606c1.602-0.081 4.101-0.628 5.694-0.675 -1.796-0.491-4.499-0.493-6.406-0.697 -1.646-0.174-4.155 0.69-5.787 0.804 -1.838 0.132-4.022-1.204-5.733-1.333 -1.857-0.138-5.733 0.283-7.555 0.604 1.556 0.17 4.94 0.433 6.472 0.682 1.878 0.306 4.573 0.966 6.522 1.052C102.362 133.131 105.183 132.708 107.157 132.606z" fill="#e28c96" stroke-width="none" opacity="1"/>
              <path id="SvgjsPath4206" d="M100.006 136.455c-2.626-0.118-6.989-1.062-8.873-2.365 0.482 0.022 1.884 0.146 2.348 0.189 0.146 0.015 0.293 0.031 0.438 0.05 0.757 0.101 1.489 0.304 2.271 0.515 0.759 0.207 2.481 0.47 3.329 0.557 0.167 0.019 0.333 0.027 0.501 0.034 1.043 0.048 2.983-0.061 3.943-0.21 0.609-0.095 1.182-0.192 1.77-0.247 0.32-0.032 0.669-0.047 1.061-0.049 0.336-0.003 0.689 0.006 1.036 0.017C106.063 135.841 102.713 136.574 100.006 136.455z" fill="#e99ca5" stroke-width="none" opacity="1"/>
              <path id="SvgjsPath4207" d="M79.382 131.481c0 0-0.708-1.188-0.609-1.633 0.139-0.619 1.923-1.85 1.923-1.85s-1.08 1.415-1.247 1.863C79.288 130.294 79.382 131.481 79.382 131.481z" fill="#c27b55" stroke-width="none" opacity="1"/>
            </g>
          </g>
          <g id="svga-group-eyes-left-move" transform="matrix(1,0,0,1,0,0)">
            <g id="svga-group-eyes-left" transform="matrix(0.8999997000000001,0,0,0.8999997000000001,7.479940156733122,8.299924954631805)">
              <g id="svga-group-eyesback-left">
                <path id="SvgjsPath4936" d="M83.071 89.125c-3.293-0.784-4.969 1.059-9.809 1.166 -8.057 0.177-9.938-0.618-11.199-2.638 -0.523-0.837-1.023-1.928-1.264-2.601l-0.1-4.149c1.328-3.949 19.541-4.352 25.9 1.784 0.287 0.666 0.433 1.287 0.465 1.867 -0.19 0.958-0.512 1.878-0.947 2.749C85.411 88.113 84.355 88.729 83.071 89.125z" fill="url(#SvgjsRadialGradient4937)" opacity="1"/>
              </g>
              <g id="svga-group-eyesiriswrapper-left" transform="matrix(1,0,0,1,0.25,0.25)">
                <g id="svga-group-eyesiriscontrol-left" transform="matrix(1,0,0,1,0,0)">
                  <g id="svga-group-eyesiris-left" transform="matrix(1,0,0,1,0,0)">
                    <path id="SvgjsPath5116" d="M79.788 85.588c-0.869 3.192-4.162 5.073-7.361 4.196 -3.197-0.876-5.084-4.178-4.214-7.371 0.869-3.195 4.168-5.076 7.365-4.198C78.772 79.09 80.659 82.392 79.788 85.588z" fill="#000000" stroke="#000000" stroke-width="0.5" opacity="1"/>
                    <path id="SvgjsPath5117" d="M78.855 85.662c-0.849 2.452-3.407 3.881-5.899 3.199 -2.3-0.631-3.752-2.838-3.563-5.171 0.853-0.067 1.787-0.087 2.756-0.04 -0.01 0.033-0.027 0.062-0.036 0.096 -0.306 1.125 0.407 2.305 1.592 2.63 1.189 0.326 2.401-0.326 2.707-1.451 0.039-0.147 0.06-0.294 0.065-0.439C77.29 84.782 78.088 85.165 78.855 85.662z" fill="#0f0f0f" stroke-width="none" opacity="1"/>
                    <path id="SvgjsPath5118" d="M74.813 82.21c-1.203-0.344-2.429 0.342-2.739 1.54 -0.311 1.191 0.412 2.438 1.614 2.783 1.204 0.345 2.43-0.342 2.741-1.534C76.742 83.801 76.016 82.555 74.813 82.21zM75.075 86.442c-0.5 0.156-1.017-0.051-1.154-0.462 -0.133-0.411 0.163-0.867 0.667-1.019 0.503-0.156 1.019 0.051 1.157 0.459C75.881 85.831 75.582 86.287 75.075 86.442z" fill="#000000" stroke-width="none" opacity="0.9"/>
                    <path id="SvgjsPath5119" d="M70.811 87.159c-0.37 0.222-0.922 0.023-1.238-0.447 -0.316-0.466-0.269-1.024 0.102-1.247 0.368-0.219 0.925-0.021 1.239 0.446C71.226 86.378 71.181 86.938 70.811 87.159z" fill="#ffffff" stroke-width="none" opacity="0.6"/>
                    <path id="SvgjsPath5120" d="M78.71 83.74c-0.846 0.507-2.117 0.051-2.837-1.02 -0.72-1.072-0.612-2.352 0.234-2.857 0.844-0.509 2.118-0.053 2.834 1.019C79.66 81.954 79.556 83.232 78.71 83.74z" fill="#ffffff" stroke-width="none" opacity="0.8"/>
                  </g>
                </g>
              </g>
              <g id="svga-group-eyesfront-left">
                <path id="SvgjsPath4961" d="M53.729 84.098c-0.382 3.304 9.854 22.004 20.071 22.004s19.5-5.292 19.5-22.003c0-17.789-9.283-22.001-19.5-22.001S55.626 67.704 53.729 84.098zM60.8 85.053l-0.1-4.149c1.328-3.949 19.541-4.352 25.9 1.784 1.396 3.231-0.409 5.477-3.529 6.438 -3.293-0.784-4.969 1.059-9.809 1.166 -8.057 0.177-9.938-0.618-11.199-2.638C61.54 86.816 61.04 85.726 60.8 85.053z" fill="#f0c7b1" stroke-width="none" opacity="1"/>
                <path id="SvgjsPath4962" d="M59.698 82.412c0.023 7.534 7.646 13.604 17.038 13.566 9.389-0.043 16.985-6.179 16.961-13.713 -0.023-7.533-7.647-13.605-17.04-13.566C67.265 68.743 59.673 74.878 59.698 82.412zM60.8 85.053l-0.1-4.149c1.328-3.949 19.541-4.352 25.9 1.784 1.396 3.231-0.409 5.477-3.529 6.438 -3.293-0.784-4.969 1.059-9.809 1.166 -8.057 0.177-9.938-0.618-11.199-2.638C61.54 86.816 61.04 85.726 60.8 85.053z" fill="url(#SvgjsRadialGradient4963)" opacity="1"/>
                <path id="SvgjsPath4967" d="M62.063 87.654c-0.523-0.837-1.023-1.928-1.264-2.601l-0.1-4.149c1.328-3.949 19.541-4.352 25.9 1.784 1.396 3.231-0.409 5.477-3.529 6.438 -3.293-0.784-4.969 1.059-9.809 1.166C65.206 90.469 63.324 89.673 62.063 87.654z" fill="url(#SvgjsRadialGradient4968)" opacity="1"/>
                <path id="SvgjsPath4971" d="M89.465 81.193c-9.617-5.761-16.701-6.128-28.117-5.394C70.877 74.298 81.852 75.387 89.465 81.193z" fill="#c27b55" stroke-width="none" opacity="1"/>
                <path id="SvgjsPath4972" d="M88.23 85.283c-3.24-8.315-25.943-8.364-27.431-4.181v3.895c-1.021-1.539-1.047-1.633-1.483-3.404l-2.195 0.746c0 0 2.746-3.873 5.299-4.381C84.606 73.539 88.04 83.949 88.23 85.283zM84.743 89.42c-4.625-1.98-5.94 0.378-11.563 0.495 -8.004 0.168-9.567-0.766-11.125-2.476 0.813 2.091 1.375 3.085 10.875 3.027C78.306 90.433 81.243 88.212 84.743 89.42z" fill="#000000" stroke-width="none" opacity="1"/>
              </g>
            </g>
          </g>
          <g id="svga-group-eyes-right-move" transform="matrix(1,0,0,1,0,0)">
            <g id="svga-group-eyes-right" transform="matrix(0.8999997000000001,0,0,0.8999997000000001,12.480169352627172,8.299924954631805)">
              <g id="svga-group-eyesback-right">
                <path id="SvgjsPath4944" d="M116.529 89.125c3.293-0.784 4.969 1.059 9.809 1.166 8.057 0.177 9.938-0.618 11.199-2.638 0.523-0.837 1.023-1.928 1.264-2.601l0.1-4.149c-1.328-3.949-19.541-4.352-25.9 1.784 -0.287 0.666-0.433 1.287-0.465 1.867 0.19 0.958 0.512 1.878 0.947 2.749C114.189 88.113 115.245 88.729 116.529 89.125z" fill="url(#SvgjsRadialGradient4945)" opacity="1"/>
              </g>
              <g id="svga-group-eyesiriswrapper-right" transform="matrix(1,0,0,1,-0.25,0.25)">
                <g id="svga-group-eyesiriscontrol-right" transform="matrix(1,0,0,1,0,0)">
                  <g id="svga-group-eyesiris-right" transform="matrix(1,0,0,1,0,0)">
                    <path id="SvgjsPath5121" d="M131.788 85.588c-0.869 3.192-4.162 5.073-7.362 4.196 -3.196-0.876-5.084-4.178-4.214-7.371 0.869-3.195 4.169-5.076 7.365-4.198C130.772 79.09 132.658 82.392 131.788 85.588z" fill="#000000" stroke="#000000" stroke-width="0.5" opacity="1"/>
                    <path id="SvgjsPath5122" d="M130.855 85.662c-0.849 2.452-3.408 3.881-5.899 3.199 -2.3-0.631-3.753-2.838-3.563-5.171 0.854-0.067 1.787-0.087 2.756-0.04 -0.01 0.033-0.027 0.062-0.036 0.096 -0.306 1.125 0.407 2.305 1.593 2.63 1.189 0.326 2.401-0.326 2.707-1.451 0.038-0.147 0.06-0.294 0.065-0.439C129.29 84.782 130.089 85.165 130.855 85.662z" fill="#0f0f0f" stroke-width="none" opacity="1"/>
                    <path id="SvgjsPath5123" d="M126.813 82.21c-1.202-0.344-2.429 0.342-2.738 1.54 -0.312 1.191 0.412 2.438 1.613 2.783 1.204 0.345 2.431-0.342 2.742-1.534C128.741 83.801 128.016 82.555 126.813 82.21zM127.075 86.442c-0.5 0.156-1.018-0.051-1.154-0.462 -0.133-0.411 0.163-0.867 0.667-1.019 0.503-0.156 1.019 0.051 1.157 0.459C127.881 85.831 127.582 86.287 127.075 86.442z" fill="#000000" stroke-width="none" opacity="0.9"/>
                    <path id="SvgjsPath5124" d="M122.812 87.159c-0.37 0.222-0.923 0.023-1.238-0.447 -0.316-0.466-0.27-1.024 0.102-1.247 0.367-0.219 0.926-0.021 1.239 0.446C123.227 86.378 123.181 86.938 122.812 87.159z" fill="#ffffff" stroke-width="none" opacity="0.6"/>
                    <path id="SvgjsPath5125" d="M130.71 83.74c-0.846 0.507-2.116 0.051-2.837-1.02 -0.72-1.072-0.612-2.352 0.234-2.857 0.845-0.509 2.117-0.053 2.834 1.019C131.66 81.954 131.557 83.232 130.71 83.74z" fill="#ffffff" stroke-width="none" opacity="0.8"/>
                  </g>
                </g>
              </g>
              <g id="svga-group-eyesfront-right">
                <path id="SvgjsPath4982" d="M125.801 62.098c-10.217 0-19.5 4.212-19.5 22.001 0 16.711 9.283 22.003 19.5 22.003s19.891-18.032 20.07-22.004C146.617 67.611 136.018 62.098 125.801 62.098zM137.537 87.654c-1.261 2.02-3.143 2.815-11.199 2.638 -4.84-0.107-6.516-1.95-9.809-1.166 -3.12-0.961-4.925-3.207-3.529-6.438 6.359-6.136 24.572-5.733 25.9-1.784l-0.1 4.149C138.561 85.726 138.061 86.816 137.537 87.654z" fill="#f0c7b1" stroke-width="none" opacity="1"/>
                <path id="SvgjsPath4983" d="M122.943 68.699c-9.393-0.04-17.016 6.033-17.039 13.566 -0.025 7.535 7.572 13.67 16.961 13.713 9.391 0.037 17.014-6.033 17.037-13.566C139.928 74.878 132.336 68.743 122.943 68.699zM137.537 87.654c-1.261 2.02-3.143 2.815-11.199 2.638 -4.84-0.107-6.516-1.95-9.809-1.166 -3.12-0.961-4.925-3.207-3.529-6.438 6.359-6.136 24.572-5.733 25.9-1.784l-0.1 4.149C138.561 85.726 138.061 86.816 137.537 87.654z" fill="url(#SvgjsRadialGradient4984)" opacity="1"/>
                <path id="SvgjsPath4988" d="M137.537 87.654c0.523-0.837 1.023-1.928 1.264-2.601l0.1-4.149c-1.328-3.949-19.541-4.352-25.9 1.784 -1.396 3.231 0.409 5.477 3.529 6.438 3.293-0.784 4.969 1.059 9.809 1.166C134.395 90.469 136.276 89.673 137.537 87.654z" fill="url(#SvgjsRadialGradient4989)" opacity="1"/>
                <path id="SvgjsPath4992" d="M110.136 81.193c9.617-5.761 16.701-6.128 28.117-5.394C128.724 74.298 117.749 75.387 110.136 81.193z" fill="#c27b55" stroke-width="none" opacity="1"/>
                <path id="SvgjsPath4993" d="M137.181 77.957c2.553 0.508 5.299 4.381 5.299 4.381l-2.195-0.746c-0.437 1.771-0.463 1.865-1.483 3.404v-3.895c-1.487-4.183-24.19-4.134-27.431 4.181C111.561 83.949 114.994 73.539 137.181 77.957zM126.67 90.467c9.5 0.058 10.063-0.937 10.875-3.027 -1.558 1.71-3.121 2.644-11.125 2.476 -5.622-0.117-6.938-2.476-11.563-0.495C118.357 88.212 121.295 90.433 126.67 90.467z" fill="#000000" stroke-width="none" opacity="1"/>
              </g>
            </g>
          </g>
          <g id="svga-group-facehighlight-single">
            <path id="SvgjsPath2903" d="M141 113.974c0.035 22.622-18.292 40.994-40.938 41.025 -22.642 0.037-41.028-18.273-41.063-40.9 -0.035-22.62 18.292-41.064 40.937-41.1C122.579 72.964 140.967 91.349 141 113.974z" fill="url(#SvgjsRadialGradient2904)" opacity="1"/>
            <path id="SvgjsPath2907" d="M137.5 53.999c0 20.711-16.789 37.5-37.499 37.5 -20.711 0-37.501-16.789-37.501-37.5s16.79-37.5 37.501-37.5C120.711 16.499 137.5 33.288 137.5 53.999z" fill="url(#SvgjsRadialGradient2908)" opacity="1"/>
          </g>
          <g id="svga-group-eyebrows-left-move" transform="matrix(1,0,0,1,0,0)">
            <g id="svga-group-eyebrows-left-rotate" transform="matrix(1,0,0,1,0,0)">
              <g id="svga-group-eyebrows-left" transform="matrix(1,0,0,1,0,0)">
                <path id="SvgjsPath4266" d="M74.799 71.28c-4.425-0.475-21.252 3.714-21.252 3.714s16.789-6.74 23.757-5.667c5.188 0.798 14.397 5.077 12.706 7.339C88.649 78.487 84.408 72.312 74.799 71.28z" fill="#2a232b" stroke-width="none" opacity="1"/>
              </g>
            </g>
          </g>
          <g id="svga-group-eyebrows-right-move" transform="matrix(1,0,0,1,0,0)">
            <g id="svga-group-eyebrows-right-rotate" transform="matrix(1,0,0,1,0,0)">
              <g id="svga-group-eyebrows-right" transform="matrix(1,0,0,1,0,0)">
                <path id="SvgjsPath4267" d="M109.731 76.398c-1.713-2.292 7.592-6.31 13.546-6.804 7.117-0.59 22.914 4.085 22.914 4.085s-15.9-2.628-20.377-2.106C115.998 72.718 111.11 78.243 109.731 76.398z" fill="#2a232b" stroke-width="none" opacity="1"/>
              </g>
            </g>
          </g>
          <g id="svga-group-nose-single-move" transform="matrix(1,0,0,1,0,0)">
            <g id="svga-group-nose-single" transform="matrix(1,0,0,1,0,0)">
              <path id="SvgjsPath4196" d="M96.831 88.524c0 0-1.399 11.117-2.026 13.281 -1.379 4.752-6.168 11.417-5.239 14.429 1.859 6.022 7.537 4.493 10.524 4.471 2.763-0.022 8.072 1.552 9.162-2.37 0.352-1.266-0.441-4.466-0.441-4.466s-2.644 3.112-8.875 2.767c-1.778-0.099-4.671-2.096-4.704-4.912 -0.043-3.817 1.802-7.035 2.205-10.824C97.741 98.022 96.831 88.524 96.831 88.524z" fill="#e1ac8f" stroke-width="none" opacity="1"/>
              <path id="SvgjsPath4197" d="M105.194 118.969c1.075 0 1.366 0.326 1.366 0.729 0 0.404-0.335 1.026-1.366 0.73 -1.134-0.323-3.113-0.175-3.113-0.175S104.117 118.969 105.194 118.969zM94.922 118.969c-1.077 0.001-1.366 0.328-1.366 0.733 -0.001 0.403 0.323 0.983 1.366 0.729 1.15-0.282 3.112-0.175 3.112-0.175S95.999 118.973 94.922 118.969zM108.81 113.869c0 0 1.489 1.933 1.18 3.975 -0.301 1.983-3.31 2.861-3.31 2.861s2.089-1.516 2.342-3.356C109.14 116.486 108.81 113.869 108.81 113.869zM90.427 111.883c0 0-1.086 2.704-0.772 4.352 0.571 2.976 3.704 4.164 3.704 4.164s-1.955-2.039-2.65-3.842C89.948 114.587 90.427 111.883 90.427 111.883z" fill="#c27b55" stroke-width="none" opacity="1"/>
              <path id="SvgjsPath4198" d="M105.141 115.311c1.043-0.889 1.148-1.396 0.932-1.729 -0.215-0.334-0.841-0.545-1.714 0.528 -0.963 1.18-3.056 2.054-3.056 2.054S104.098 116.198 105.141 115.311z" fill="#ffe4d6" stroke-width="none" opacity="1"/>
            </g>
          </g>
          <g id="svga-group-beardwrap" transform="matrix(0.9799997000000001,0,0,0.9998997000000002,2.000029999999981,0.0018184389158228953)">
            <g id="svga-group-beard-single-move" transform="matrix(1,0,0,1,0,0)">
              <g id="svga-group-beard-single" transform="matrix(1,0,0,1,0,0)">
                <path id="SvgjsPath4925" d="M100,18.13L100,18.13L100,18.13L100,18.13z" fill="#2a232b" stroke-width="none" opacity="1"/>
              </g>
            </g>
          </g>
          <g id="svga-group-mustache-single-move" transform="matrix(1,0,0,1,0,0)">
            <g id="svga-group-mustache-single" transform="matrix(1,0,0,1,0,0)">
              <path id="SvgjsPath4917" d="M100,18.13L100,18.13L100,18.13L100,18.13z" fill="#2a232b" stroke-width="none" opacity="1"/>
            </g>
          </g>
          <g id="svga-group-hair-front" transform="matrix(0.9799997000000001,0,0,0.9998997000000002,2.0585304044704316,0.004959334138959548)">
            <path id="SvgjsPath4913" d="M49.325 111.556c-5.418-3.127-9.142-6.627-12.893-15.151 -0.509-1.289-1.893-5.586-1.893-6.583 -2.19-1.805-4.608-7.14-5.665-9.781 -3.002-10.296-2.617-22.5-0.507-28.338l-0.355-0.177c-2.585 3.959-3.283 7.628-3.899 11.174 -2.751-9.066-1.237-19.367 5.766-28.261 -3.219 0.806-4.477 1.441-7.395 0.896 5.609-2.923 22.364-15.071 26.957-23.31 -3.952 1.013-8.211 3.096-11.467 5.241C42.093 4.296 58.83-6.401 72.393-5.223c-2.447-2.174-4.562-4.95-6.305-7.631 3.691 1.212 10.025 3.686 16.204 5.204 21.252 4.455 15.286 2.485 34.942-4.586 -0.811 2.912-0.804 3.07-2.543 7.203 14.207-5.614 27.89 0.23 32.18 8.219h0.009c0.062 0.115 0.122 0.232 0.182 0.348 -1.924-0.647-3.58-0.815-5.581-0.929 3.554 6.121 5.933 6.694 17.512 10.142 1.198 0.376 3.149 0.87 4.78 1.156 -2.419 1.728-4.111 2.16-7.047 2.539 4.662 1.984 7.377 5.559 9.431 10.264 2.974 7.095 3.489 12.801 2.96 19.332 -1.288-1.974-3.025-4.896-4.785-7.3l-0.343 0.202c4.382 9.461 2.86 17.286 19.494 28.646 -1.435 0.321-3.059 0.489-4.729 0.489l0 0c-2.914 0-5.43-0.476-7.888-1.295 0.702 8.681 0.171 12.925-0.7 16.66 -2.029 7.642-6.055 13.108-13.631 14.948 -4.42 5.776-8.943 8.17-12.081 8.709 2.207-3.648 7.364-13.608 8.248-17.532l-0.418-0.743c-9.509-2.35-16.209-9.562-17.565-19.881 -1.947 2.924-3.769 5.106-9.482 9.489 -0.465-11.558-6.145-26.409-13.25-35.719 -0.038 3.226 0.066 3.476 0.888 7.833h0.007c1.052 5.11 4.22 11.59 5.277 14.718 -3.106-1.771-5.685-2.961-9.079-8.315 -1.651-2.597-3.648-6.999-4.548-10.02l-0.39 0.033c-0.232 1.911-0.205 3.113-0.191 3.758 0 2.133 2.814 12.875 4.655 15.999 -6.57-3.309-9.514-8.744-11.7-14.128l-0.385 0.063c-0.212 3.309 0.151 10.703 1.586 16.32 -5.281-1.591-8.449-3.893-11.229-8.137 -1.839-3.446-1.922-4.927-2.316-8.32 -5.93 7.875-15.644 14.488-22.28 16.559 -0.031 0.009-0.094 0.027-0.169 0.048 0.9-1.781 1.845-3.528 2.76-5.222 2.511-4.645 3.927-7.333 5.656-11.639C54.489 63.345 51.333 80.329 55.478 99.135c-2.798-1.794-3.247-2.156-5.58-4.629 0.542 3.657 0.365 9.122-1.793 14.192l-0.033 0.078 0.033 0.078C49.309 111.692 48.909 110.896 49.325 111.556z" fill="#080806" stroke-width="none" opacity="1"/>
            <path id="SvgjsPath4914" d="M125.204 77.964c-0.578-11.19-5.923-25.294-12.679-34.51C126.567 47.285 130.275 69.622 125.204 77.964zM106.011 36.392c-3.612 7.222-0.428 21.701 12.146 28.871C112.525 58.574 107.619 51.859 106.011 36.392zM108.453 66.433c-7.192-8.037-10.356-19.174-10.347-29.233 -3.515 6.254-2.14 23.155 10.499 29.518C108.556 66.635 108.504 66.526 108.453 66.433zM89 37c-4.366 7.103-9.458 26.381 9.106 31.973C87.048 59.856 87 49.904 89 37zM62.11 69.123c0.075-0.021 0.138-0.04 0.169-0.048 6.428-2.005 16.639-9.568 22.606-17.115 0.386-2.524 0.36-4.479 0.876-6.959C81.137 53.507 67.663 65.263 62.11 69.123zM52.691 89.147C45.784 78.324 51.501 57.719 54 55.575 49.975 58.052 41.291 80.894 52.691 89.147zM163.003 71.547c-0.902 15.205-9.329 25.748-18.371 35.513C154.984 105.083 166.035 88.224 163.003 71.547zM124.746 13.008C139.146 20.948 142.804 24.918 148 43 148 29.963 140.027 11.987 124.746 13.008zM109.744 10c-3.342 13.6 2.781 23 12.857 27.2C115.994 30.985 109.445 19.687 109.744 10zM35.291 56.683C42.033 57.062 52.027 53.314 54 45 49.325 51.209 45.258 54.686 35.291 56.683zM118.932 6.5c14.625-5.633 24.125-4.452 28.129-2.966C143.588 1.305 129.869-2.515 118.932 6.5zM38.819 16.035c10.126-6.212 14.655-5.279 20.253-5.606C51.421 7.273 45.744 9.378 38.819 16.035zM138.423 9.041c10.748 6.188 12.979 9.687 25.349 4.862C157 16.162 148 13.815 138.423 9.041zM86.739 6.456C92.978 6.459 96.974 8.788 100 11.063 98.35 8.073 91.713 3.969 86.739 6.456zM143.806 47.319c-1.848 11.267 5.017 16.082 14.445 17.591C152.279 63.099 145.654 56.831 143.806 47.319zM60.555 44.103c8.802-4.429 20.361-14.742 20.361-24.204C76.744 28.11 70.447 37 60.555 44.103zM183.241 67.417C171.046 68.508 164.456 58.388 157 50c2.801 7.468 8.217 12.322 14.619 17.002 2.223 0.672 4.515 1.073 7.134 1.073 1.67 0 3.294-0.168 4.729-0.489C183.398 67.529 183.323 67.474 183.241 67.417zM37.509 67.144c-3.62 12.01-6.057 30.855 11.816 44.412C39.134 100 35.743 81.271 37.509 67.144zM84.497 11.687C72.32 11.938 62.5 13 56.397 28.11 69.522 15.608 75.298 14.736 84.497 11.687zM24.119 57.719c1.73-6.653 6.276-11.247 13.078-13.775C28.606 44.103 25.479 48.186 24.119 57.719zM137.83 59.037c-6.883 10.962 0.74 24.952 14.349 29.395C138.508 74.348 138.111 70.642 137.83 59.037zM168.885 45.242C166.06 33 160.582 26.235 152.279 30.94 160.87 28.11 162.762 37.2 168.885 45.242zM131.446 71.73c10.059-10.14 6.667-25.225-1.631-31.637C136.373 53.445 134.794 60.709 131.446 71.73z" fill="#000000" stroke-width="none" opacity="1"/>
            <path id="SvgjsPath4915" d="M110.203 28.735c-7.752-5.34-11.439-9.634-17-16.667C98.507 16.871 105.104 23.542 110.203 28.735zM123.869 23.402c12.675 2.771 10.384 1.424 18.667 9.333C136.584 24.215 134.941 23.956 123.869 23.402zM127.869 33.402c7.079 3.301 11.655 15.926 13 23.333C140.952 47.935 136.387 35.737 127.869 33.402zM140.203 60.735c-0.438 8.567 3.08 11.935 7.333 21.667C145.451 73.278 141.402 70.29 140.203 60.735zM158.869 68.069c-0.707 8.421 0.23 14.627-3.666 21.333C160.468 83.167 159.616 76.161 158.869 68.069zM167.869 67.735c2.15 5.972-0.532 17.421-3.666 22.667C169.216 84.525 171.429 74.01 167.869 67.735zM152.869 33.735c11.648 2.03 4.693 18.159 19.334 27.333C159.416 48.888 165.243 33.55 152.869 33.735zM146.536 19.402c10.708 1.315 15.663 5.39 19.667 14C163.707 23.215 156.576 18.773 146.536 19.402zM115.203 41.069c9.562 6.386 13.174 17.608 13.333 29C130.82 58.701 126.871 45.731 115.203 41.069zM114.869-1.265c13.246-1.465 13.697-1.931 22.334 0.333C131.115-4.134 126.459-5.081 114.869-1.265zM74.536-7.265c9.174 6.781 29.321 12.629 37.667-1C103.296 1.777 86.568-1.323 74.536-7.265zM91.869 4.402c5.054-0.75 7.943 0.543 13.334 7.667C102.484 5.991 98.11 2.087 91.869 4.402zM82.536 8.402c-8.516-0.987-16.124-0.718-19.667 8.333C67.811 9.291 72.223 9.411 82.536 8.402zM47.869 8.069c4.683-4.046 14.198-10.146 22.333-9C62.43-3.799 52.913 1.43 47.869 8.069zM34.869 29.735c8.239-2.621 16.719-6.773 20.667-14.333C50.845 21.033 43.314 24.832 34.869 29.735zM49.869 29.069c-1.195 12.697-8.067 16.114-14 25.667C45.636 44.918 51.179 40.519 49.869 29.069zM68.536 47.069c-12.292 1.269-17.363 18.449-16.667 30.667C53.818 66.438 57.941 50.561 68.536 47.069zM75.203 39.735c-1.015 7.647-1.94 11.476-5.333 21C74.771 52.952 75.721 46.942 75.203 39.735zM96.536 35.735c-2.42 8.248-4.131 16.801-0.667 24.667C94.356 53.021 95.625 47.431 96.536 35.735zM87.869 15.402c-2.639 10.946-4.018 15.103-9 22.333C85.645 31.291 87.549 25.039 87.869 15.402zM105.203 33.735c-4.181 6.509-4.464 12.145-2.667 19.667C102.38 45.491 102.472 40.92 105.203 33.735zM110.869 36.402c-2.494 6.409-2.027 11.348 0.667 16.667C110.088 47.593 109.679 44.197 110.869 36.402zM48.869 56.735c-5.414 5.987-4.846 14.654-4 22.667C45.896 70.017 45.069 63.265 48.869 56.735zM40.203 64.069c-2.677 7.568-3.156 17.894 1.333 25C38.938 81.959 39.361 71.135 40.203 64.069zM32.869 48.069c-4.311 9.962-5.28 17.968-0.667 30.333C30.584 67.67 30.145 61.234 32.869 48.069zM26.203 48.069C37.259 30.471 44.045 36.17 48.536 27.402 41.92 35.084 33 29.641 26.203 48.069zM72.203 19.402c0.119 6.162-2.69 10.826-5 17.667C70.522 31.503 73.658 25.68 72.203 19.402zM139.869 4.402c2.816 5.948 9.814 9.055 16 9C150.963 12.386 143.511 9.186 139.869 4.402zM145.536 46.735c-0.258 5.394 3.563 10.916 8 13.667C150.647 57.794 146.327 51.645 145.536 46.735z" fill="#171714" stroke-width="none" opacity="1"/>
            <path id="SvgjsPath4916" d="M183.969 67.675c-6.263-4.256-7.33-5.468-10.979-9.56 0 0-0.13-0.15-0.36-0.41 -6.695-9.373-4.181-9.611-8.46-18.85 1.892 2.585 3.736 5.738 5.101 7.78 0.21-3.013 1.227-10.089-2.931-20.01 -1.825-4.18-4.68-8.3-8.859-10.08 4.107-0.531 5.81-2.099 6.81-2.76 -1.729-0.267-3.954-0.827-5.24-1.23 -11.193-3.341-13.854-3.955-17.21-9.73 2.593 0.148 4.093 0.503 5.62 1.06 -0.14-0.29-0.3-0.6-0.46-0.9h-0.01c-1.685-3.134-5.694-6.731-10.811-8.71 -6.66-2.164-13.447-2.699-21.119 0.33 1.653-3.92 1.639-4.2 2.47-7.16 -20.085 7.173-13.869 9.179-35.19 4.71 -6.461-1.587-13.197-4.26-16.72-5.37 1.142 1.815 3.804 5.62 6.19 7.74 -12.222-1.064-30.117 9.186-34.19 23.22 3.924-2.671 8.58-4.681 11.42-5.41 -4.303 7.714-21.63 20.432-27.16 23.08 3.367 0.755 4.777 0.036 7.48-0.64 -5.514 7-8.194 16.316-5.92 26.15 0 0.01 0 0.01 0 0.01 0.251 1.066 0.398 1.582 0.73 2.61 0.655-3.762 1.25-7.683 4.01-11.91 -1.983 5.486-2.645 17.666 0.51 28.48 1.14 2.849 3.531 8.031 5.65 9.8 0 0.398 0.873 3.943 1.91 6.57 3.745 8.508 7.459 12.167 13.64 15.62 -1.071-1.842-0.152 0.086-1.6-3.33 1.533-3.602 2.02-6.65 2.02-10.25 0.024-1.064-0.082-3.162-0.12-3.42 2.12 2.249 2.849 2.704 5.59 4.46 -6.552-28.9 6.73-41.52 14.314-46.761 -2.402 5.989-5.563 11.027-8.364 16.631 0.16-0.041 0.52-0.145 0.6-0.17 0 0 0 0 0.01 0 7.426-2.316 17.112-9.638 22.08-16.23 0.347 2.986 0.478 4.515 2.29 7.91 2.991 4.564 6.373 6.777 11.68 8.32 -1.555-5.824-1.87-13.481-1.67-16.6 2.399 5.909 5.43 11.094 12.06 14.34h0.01c0.14 0.07 0.29 0.14 0.42 0.21 -1.721-1.734-5.06-14.067-5.06-16.5 -0.016-0.705-0.036-1.87 0.189-3.73 0.945 3.177 2.972 7.555 4.57 10.07 3.576 5.639 6.229 6.686 9.6 8.64 -1.11-3.542-3.387-7.564-5.149-14.01 -0.221-0.8-0.311-1.34-0.32-1.34 -0.69-3.673-0.889-4.392-0.86-7.05 6.238 8.171 12.493 23.175 12.87 35.53 3.443-2.632 6.896-5.363 9.54-9.33 1.357 10.283 8.577 17.26 17.561 19.5 0.109 0.2 0.229 0.4 0.34 0.6 -0.824 3.688-6.054 13.94-8.43 17.76 3.147-0.36 7.957-2.755 12.59-8.79 7.616-1.846 11.667-7.385 13.71-15.08 0.768-3.291 1.446-7.654 0.729-16.42C175.681 68.596 180.602 68.525 183.969 67.675zM50.089 93.835c-0.188-2.277-0.54-4.608-1.04-6.9 0.877 1 1.603 1.796 3.63 3.4 0.161 2.242 0.458 4.618 0.96 6.97C52.639 96.433 51.013 95.237 50.089 93.835zM150.459 80.585c1.277 2.101 2.995 3.706 2.311 7.61C152.291 87.195 151.248 84.205 150.459 80.585zM170.52 66.825c-0.455 12.426-1.084 26.441-13.381 31.09 7.956-11.178 5.978-16.145 6.301-22.76 -0.814 4.577-0.103 1.329-0.99 8.41 -1.297 6.64-8.454 19.527-16.7 22.81 0.611-0.858 1.893-2.938 2.71-4.229 4.354-7.071 5.899-11.333 6.04-16.21 -0.02-0.34-0.06-0.54-0.06-0.54 -0.336-2.668-2.538-5.358-4.44-7.26 -0.239-1.495-1.114-7.706-1.52-14.28 -0.269 3.7-0.338 8.969 0.199 13l0.011 0.01c0.862 5.889 2.244 10.208 3.029 11.28 -1.551-0.623-1.77-0.781-2.77-1.32 -8.722-4.82-11.62-9.872-13.46-18.88 1.596-2.724 1.738-4.376 2.22-6.48 0-0.01 0-0.01 0-0.02 0.514-1.567-0.56-9.591-0.56-10.61 0-0.12 0.02-0.2 0.029-0.22 -0.085 0.087-0.096 0.808-0.1 0.93 -0.229 7.18 0.566 9.475-2.78 16.01 -0.279 0.45-0.52 0.96-0.85 1.42 -2.167 2.786-2.007 2.823-7.78 8.24 0.679-11.247-5.389-26.989-13.479-34.75 0.11-3.74-0.079-4.97-0.681-5.97 0.706 1.733 0.238 3.75 0 5.96 -0.573 4.723 0.177 11.666 5.37 21.61 -6.189-4.771-10.123-12.717-12.12-20.04 0.563-3.521 0.906-4.625 1.38-8.68 -1.36 5.964-3.1 9.308-3.1 15.4 0.134 3.435 2.431 11.041 4.84 15.03 -4.119-2.958-8.768-9.078-10.95-16.89 0.597-7.936 1.488-12.376 2.14-16.61 -3.518 11.411-3.571 15.709-3.85 20.82 -0.02 1.28 0.01 2.57 0.01 3.53 0.01 0.48 0.01 0.88 0.02 1.17 0.03 0.28 0.04 0.44 0.04 0.44 0.545 5.442 1.496 8.688 2.04 10.04 -4.951-2.176-9.931-6.937-11.1-12.87 -1.616-7.53 2.373-17.62 2.68-18.62 -0.853 1.706-4.395 7.961-4.51 14.97 -2.026 2.257-4.629 4.75-5.63 5.64 -5.605 5.083-10.98 8.705-15.96 11.19 0.13-0.2 0.27-0.42 0.41-0.64l-0.01 0.03c6.144-9.044 9.965-16.674 10.18-27.55 -0.58 4.238-1.601 7.9-2.866 11.256 -10.46 5.48-18.753 18.57-17.924 37.234 -0.15-0.17-0.31-0.33-0.47-0.5 -7.064-6.96-4.696-14.295-2.67-22.49 2.321-9.233 3.71-9.51 4.71-10.51 -3.46 2.069-5.596 8.819-6.82 12.85 -2.729 8.793-1.479 13.522 0.28 16.65 1.366 9.164 2.228 14.714 0.21 22.79 -1.216-2.735-2.888-9.783-3.12-13.34 -0.673-5.966-0.763-7.961-1.25-15.26 -0.494 7.405-1.295 20.041 3.62 29.87 -10.349-9.856-14.864-24.953-9.27-42.86 -3.354 7.285-4.874 13.868-3.84 21.76 -6.401-11.16-7.021-26.98-4.14-38.48 2.612-3.149 5.684-4.568 7.68-5.57 -6.141 2.238-7.106 3.404-9.64 6.19 -1.762 2.461-2.938 4.705-3.84 8.12 -0.536-8.169 1.545-16.16 7.4-23.97 5.653-1.508 10.804-4.672 15.4-8.12 -6.775 3.736-10.945 5.852-17.88 7.81 -0.886 0.262-3.403 1.002-4.34 1.12 7.457-3.866 21.268-13.739 25.05-22.81 3.97-1.186 6.349-1.333 9.04-1.66 -7.141 0-12.19 0.606-19.89 5.53 4.617-9.06 19.642-20.74 33.96-20.74 2.847 2.213 6.718 3.623 10.19 5.6 -2.169-1.853-7.413-4.64-9.28-6.11 0-0.01 0-0.01-0.01 0 -1.191-0.95-1.73-0.982-5.89-6.27 9.406 4.473 12.744 5.31 16.57 6.2 18.733 4.262 17.219 0.998 31.89-5.82 -0.354 1.012-2.504 6.973-3.28 7.73 -2.076 3.669-4.594 6.552-8.51 8.51 4.48-1.485 7.663-4.723 9.87-9.01 0.65-0.325 4.727-1.365 6.37-1.54 8.218-0.886 11.799-0.144 17.64 2.5 1 0.555 4.702 2.439 7.261 5.41 -6.718-2.101-17.275 0.695-23.921 2.92 1.711-0.326 10.455-2.156 15.62-2.54 1.891-0.16 3.761-0.08 3.761-0.09 0.09 0 0.18 0.01 0.27 0.01 2.622 5.451 4.2 7.416 17.53 10.66 1.372 0.318 2.838 0.494 3.83 0.62 -2.315 1.026-3.594 1.278-6.32 1.51 -10.533 0.214-12.152-4.801-18.6-6.76 6.802 3.031 6.574 7.8 18.97 7.8 3.643 1.355 6.84 6.796 8.439 10.49 2.288 5.485 3.317 11.582 3.57 17.52 -1.612-2.944-7.708-12.381-11.07-13.57 -0.761-0.297-1.4-0.304-2.14-0.23 2.067 0 3.499 1.242 4.71 2.93h0.01c2.547 3.711 3.938 9.101 5.25 13.6 0 0 0.061 0.2 0.16 0.54 2.532 8.814 8.096 15.083 15.771 19.33 -16.134 0.714-17.671-9.528-25.601-18.32C160.412 55.189 162.752 63.528 170.52 66.825zM157.229 63.575c-2.577-6.236-1.016-3.791-4.221-10.15 3.521 4.422 3.78 7.85 5.73 11.77 -7.248-1.936-14.8-9.364-15-17.58 -0.04-0.78-0.061-1.26-0.061-1.26C145.099 54.866 149.964 59.968 157.229 63.575zM148.549 46.706c-1.18-3.591-8.053-17.584-14.279-19.61 -1.982-0.853-4.928-1.363-7.24-1.91 8.267 0.722 12.23 0.498 18.76 12.86 0.59 1.14 1.18 2.43 1.75 3.76 -1.69-13.577-6.567-20.283-12.76-25.08 -4.292-2.865-7.618-3.228-10.29-3.68 2.949 0.081 6.466 0.083 11 2.59 4.633 2.963 7.719 6.044 10.82 13.87 0.22 0.52 0.369 0.97 0.46 1.29 0.1 0.31 0.159 0.49 0.159 0.49C148.623 36.71 148.718 40.973 148.549 46.706zM120.699 36.115c-6.086-6.25-11.09-14.396-10.61-23.07 0.697 9.229 7.345 18.064 13.82 25.01 -12.517-1.666-21.022-10.063-28.2-19.91C106.407 29.942 113.476 33.58 120.699 36.115zM87.299 5.875c-0.01 0.01-0.01 0.02-0.02 0.03 3.177-1.248 9.33-0.122 12.08 4.32 -2.801-3.547-8.862-5.14-12.62-3.77 1.205-3.917 6.946-4.981 10.93-4.42 -2.532 0-6.33 0.606-8.54 2.03C88.107 4.701 87.909 5.095 87.299 5.875zM58.909 45.555c5.625-8.431 4.559-4.042 8.75-15.7 0.465-1.342 1.924-5.56 2.9-7.75 -0.02 0.1-0.14 0.53-0.32 1.19 -3.206 12.822-4.09 14.826-8.8 20.32 8.872-5.32 14.373-10.241 19-19.54C77.348 34.462 68.579 41.758 58.909 45.555zM55.719 28.795c0 0 0 0 0-0.01 0-12.914 7.494-26.534 19.37-25.05 -13.802 0-18.42 19.599-18.42 23.9 6.221-7.458 17.108-13.956 28.27-15.99 -9.501 2.929-21.763 9.859-29.23 17.88C55.719 29.285 55.719 29.035 55.719 28.795zM36.039 56.555c6.452 0.207 12.076-2.905 16.42-7.61 -3.988 6.273-12.402 9.888-18.82 7.76 9.583-3.201 16.521-12.126 18.58-22.2 -0.775 9.675-5.943 17.08-14.12 21.24C36.345 56.557 37.039 56.126 36.039 56.555z" fill="#000000" stroke-width="none" opacity="1"/>
          </g>
          <g id="svga-group-glasses-single-move" transform="matrix(1,0,0,1,0,0)">
            <g id="svga-group-glasses-single" transform="matrix(1,0,0,1,0,0)">
              <path id="SvgjsPath4385" d="M143.62 100.1c-2.36 2.2-6.23 3.04-13.56 3.04 -9.78 0-16.18-1.09-20.41-9.51 -3.29-6.54-4.62-13.56-3.02-15.98 2.21-3.34 8.57-5.61 15.67-6.28C134.63 77.23 143.29 88.98 143.62 100.1zM72.01 71.17c-7.64 0.21-15.09 2.35-18.27 7.05 -2.18 3.21-1.69 12.55-0.22 16.94 2 5.99 5.07 7.98 16.42 7.98 9.78 0 16.18-1.09 20.41-9.51 0.42-0.84 0.81-1.69 1.17-2.54C88.29 82.95 81.16 75.43 72.01 71.17z" fill="#ffffff" stroke-width="none" opacity="0.2"/>
              <path id="SvgjsPath4386" d="M146.48 95.17c-0.71 2.12-1.56 3.73-2.86 4.94 -0.33-11.12-8.99-22.87-21.33-28.74 9.37-0.89 19.99 0.99 23.97 6.86C148.44 81.44 147.95 90.77 146.48 95.17zM93.38 77.65c-2.79-4.23-12.22-6.73-21.37-6.47 9.16 4.25 16.28 11.77 19.52 19.92C93.94 85.36 94.77 79.76 93.38 77.65z" fill="#ffffff" stroke-width="none" opacity="0.4"/>
              <path id="SvgjsPath4387" d="M151.79 73.61c-10.18-5.46-36.14-7.01-45.5 0.15 -0.8 0.47-4.23-0.53-6.29-0.53 -1.95 0-5.42 1.05-6.29 0.53 -9.36-7.16-35.32-5.61-45.5-0.15 -1.46 0.79-1.62 4.51-0.35 5.08 0.91 0.41 1.51 0.98 1.46 1.98C49 86.29 50.55 93.59 51.23 95.6c0.87 2.59 2.44 7.41 9.29 8.6 5.83 1.01 16.43 1.48 21.94-0.17 9.99-2.98 14.24-18.04 14.42-23.17l0.01 0.02c0.4-1.8 5.82-1.8 6.23 0l0.01-0.02c0.17 5.13 4.43 20.19 14.42 23.17 5.51 1.65 16.11 1.18 21.94 0.17 6.85-1.19 8.42-6.01 9.29-8.6 0.68-2.02 2.23-9.31 1.92-14.93 -0.05-1 0.56-1.57 1.46-1.98C153.41 78.12 153.25 74.4 151.79 73.61zM81.41 101.36c-5.06 1.51-14.32 1.61-19.71 0.67 -4.54-0.79-6.44-3.26-7.7-7.03 -1.48-4.4-1.87-13.51 0.16-16.5 6.76-9.98 33.87-8.05 38.8-0.58C95.16 81.27 90.89 98.53 81.41 101.36zM146 95.01c-1.26 3.77-3.17 6.24-7.7 7.03 -5.39 0.94-14.65 0.84-19.71-0.67 -9.48-2.83-13.75-20.09-11.55-23.44 4.93-7.47 32.04-9.4 38.8 0.58C147.87 81.49 147.48 90.61 146 95.01z" fill="#26120b" stroke-width="none" opacity="1"/>
              <path id="SvgjsPath4388" d="M118.58 101.32c2.79 0.83 6.86 1.24 10.85 1.27 -12.54 1.22-15.39-3.4-17.12-5.16 -3.52-3.59-5.69-8.95-5.85-16.65C106.49 86.86 110.76 98.99 118.58 101.32zM93.69 73.72c-9.36-7.16-35.32-5.62-45.5-0.15C71.43 67.05 84.93 70.42 93.69 73.72zM61.68 102c-4.54-0.79-6.44-3.26-7.7-7.03 -1.32-3.93-1.77-11.62-0.4-15.35 -1.83 4.22-1.12 12.39 0.26 16.5 1.6 4.8 4.54 7.18 17.34 6.46C67.71 102.65 64.25 102.44 61.68 102zM152.97 76.3c-0.04-1.13-0.45-2.32-1.2-2.73 -9.98-5.36-35.14-6.94-44.93-0.25C120 68.05 138.97 67.31 152.97 76.3z" fill="#351d15" stroke-width="none" opacity="1"/>
            </g>
          </g>
        </g>
      </g>
    </g>
  </g>
</svg>
